<?xml version="1.0" encoding="UTF-8"?>
<svg id="Layer_2" data-name="Layer 2" xmlns="http://www.w3.org/2000/svg" viewBox="0 0 397.22 398.96">
  <defs>
    <style>
      .cls-1 {
        font-family: AzoteSSK, AzoteSSK;
        font-size: 72px;
      }

      .cls-1, .cls-2, .cls-3 {
        fill: #e84d35;
      }

      .cls-4 {
        letter-spacing: 0em;
      }

      .cls-3 {
        font-family: GillSans-Bold, 'Gill Sans';
        font-size: 31.03px;
        font-weight: 700;
      }

      .cls-5 {
        letter-spacing: -.07em;
      }

      .cls-6 {
        letter-spacing: -.03em;
      }
    </style>
  </defs>
  <g id="Augury13">
    <text class="cls-1" transform="translate(0 340.11)"><tspan x="0" y="0">AUGURY13</tspan></text>
    <text class="cls-3" transform="translate(36.74 391.51)"><tspan x="0" y="0">P</tspan><tspan class="cls-6" x="20.2" y="0">S</tspan><tspan class="cls-5" x="37.85" y="0">Y</tspan><tspan class="cls-4" x="57.65" y="0">CHIC READINGS</tspan></text>
    <path class="cls-2" d="M203.83,199.12l-2.1,29.24-8.79,28.63-7.34-28.69s-1.43-18.32-2.07-29.15c-25.26-1.34-54.63-19.72-69.16-40.1C45.1,61.93,170.21-49.88,257.13,23.9c67.42,57.23,32.63,165.36-53.3,175.22ZM183.75,191.27v-35.92c0-3.61,9.95-8,.01-19.88-7.21-8.61-30.42-13.93-45.85,3.82-3.79-7.5-8.25-21.83-1.53-30.09,0,0,11.57,5.02,22.9,7.95,5.97,1.54,12.13,2.67,18.35,2.27-3.48-4.3-9.45-6.2-13.59-10.08-6.87-6.44-15.7-22.84-16.85-32.06-6.91-55.25,67.01-75,89.11-26.45,11.9,26.15-3.5,56.15-28.09,67.83,1.99,3.01,3.33,1.85,5.8,1.36,11.56-2.29,22.21-5.54,32.95-9.88,7.75,7.99,1.06,29.01,1.06,29.01-15.52-13.46-37.75-11.22-45.11-2.84-8.18,9.31.56,15.59.56,19.46,0,5.22-.44,34.08-.26,35.51,83.72-9.88,112.66-118.57,41.53-167.22-74.59-51.02-169.59,26.58-135.52,111.06,12.05,29.88,42.41,52.76,74.53,56.15ZM214.23,54.7c-20.42-19.18-52.88.32-50.42,27.38,1.19,13.03,11.36,24.81,22.24,31.24,7.5-6.7-3.15-26.11-3.15-26.11,0,0,8.27-8.9,10.82-12.06l10.74,12.06s-9.41,18.33-3.14,26.09c20.19-11.81,32.46-40.23,12.91-58.6Z"/>
  </g>
</svg>