<?xml version="1.0" encoding="UTF-8"?>
<svg id="Layer_2" data-name="Layer 2" xmlns="http://www.w3.org/2000/svg" viewBox="0 0 34.63 44.88">
  <defs>
    <style>
      .cls-1 {
        fill: #e84d35;
      }
    </style>
  </defs>
  <g id="Augury13">
    <path class="cls-1" d="M19.13,34.77l-.37,5.11-1.54,5c-.18-1.75-1.13-3.8-1.32-5.49-.17-1.53.28-3.16-.33-4.61-4.41-.23-9.54-3.44-12.08-7C-8.59,10.81,13.26-8.71,28.44,4.17c11.77,9.99,5.7,28.88-9.31,30.6ZM15.63,33.4v-6.27c0-.63,1.74-1.4,0-3.47-1.26-1.5-5.73-1.39-7.21-.26-.44.33-.37.88-.8.93-.66-1.31-1.07-1.88-.62-3.42.85-2.93,2.38-.96,4.35-.44,1.04.27,2.12.47,3.2.4-.61-.75-1.65-1.08-2.37-1.76-1.2-1.12-2.74-3.99-2.94-5.6C8.04,3.85,20.94.4,24.8,8.88c2.08,4.57-.61,9.81-4.91,11.85.35.53.58.28,1.01.24,2.05-.21,3.88-.97,5.75-1.73,1.35,1.4,1.75,3.55.44,5.09-.07.08-1.11-1.13-1.71-1.35-1.63-.59-5.37-.81-6.41.83s-.04,2.47.13,3.85c.11.91-.21,5.55,0,5.75,14.62-1.72,19.6-20.71,7.18-29.2C13.25-4.71-3.34,8.84,2.61,23.6c2.1,5.22,7.41,9.21,13.01,9.81ZM20.87,9.74c-3.57-3.35-9.16-.13-8.73,4.59.21,2.28,1.98,4.33,3.88,5.46,1.31-1.17-.68-3.94-.55-4.56.14-.65,1.44-1.55,1.89-2.11l1.87,2.11c-.36,1.37-1.64,3.2-.55,4.56,3.53-2.06,5.59-6.84,2.18-10.04Z"/>
  </g>
</svg>