<?xml version="1.0" encoding="UTF-8"?>
<svg id="Layer_2" data-name="Layer 2" xmlns="http://www.w3.org/2000/svg" viewBox="0 0 213.8 211.57">
  <defs>
    <style>
      .cls-1 {
        fill: #e84d35;
      }
    </style>
  </defs>
  <g id="Augury13">
    <path class="cls-1" d="M154.1,177.01c-1.25,3.18-3.89,5.82-7.11,6.98-27.9,7.72-55.95,19.58-83.84,26.82-7.76,2.01-13.38.25-16.42-7.55L.05,55.55c-.39-4.56,1.63-8.11,5.07-10.91,29.07-10.41,58.96-18.88,88.31-28.66,2.64-.66,4.98-.31,7.59.23-.84-8.91,3.21-14.95,12.4-15.58,28.62-1.99,59.53,1.54,88.39,0,6.66.52,11.22,4.4,11.99,11.15l-.21,155.92c-1.02,4.55-4.74,8.19-9.31,9.2l-50.18.11ZM111.86,4.12c-4.27.66-7.31,4.2-7.49,8.5v152.34c-.02,4.21,2.79,7.84,6.95,8.62h91.75c3.97-.25,7.13-3.88,7.36-7.78V11.78c-.28-4.63-4.22-7.49-8.63-7.78l-89.95.12ZM101.02,29.68v-9.47c-2.03-1.46-4.81-1.6-7.16-.84L9.01,46.43c-7.74,3.61-5.51,9.14-3.61,15.55,14.12,47.67,30.85,94.67,45.47,142.19,4.38,6.67,9.91,3.73,15.98,1.92,27.31-8.15,54.61-17.43,81.51-26.62l1.89-2.52h-10.73c-26.7,8.36-53.24,17.65-80.17,25.06-4.97-.69-5.47-5.2-6.82-9.17-15.19-44.46-27.77-89.88-42.69-134.44-.42-2.35-.15-4.81,1.78-6.42,1.05-.88,8.5-3.48,9.67-3.37,1.35.13,1.96,1.7,1.1,2.78-1.7,2.14-10.98,1.28-9.19,6.59l44.49,139.38,1.69,1.29,68.17-21.71h-17.46c-3.04,0-9.05-6.41-9.05-9.47v-21.25c-4.28,2-8.45,5.66-13.4,5.41-1.91-3.51,3.73-3.94,6.27-5.18,2.52-1.23,4.65-3.15,7.13-4.44v-6.31c-17.28,18.68-49.4,10.19-54.91-14.72-.37-1.68-1.9-8.55.07-9.2,3.24-1.06,2.39,4.01,2.72,5.99,3.69,22.34,29.74,32.72,47.27,17.92,2.13-1.8,5.72-5.07,4.87-8.14l-13.49-1.94-.43,12.82c-.23,1.36-1.44,1.74-2.65,1.43l-8.11-10.43c-1.57-.38-8.7,9.01-10.87,8.82-.51-.04-1.06-.41-1.28-.86-.99-2.02,1.48-11.09,1.47-13.89h-9.47c-1.68-1.09-4.23.54-5.2-1.56-.11-.43.04-.88.21-1.28.63-1.42,10.67-7.61,10.66-8.31l-8.61-9.47c-.64-1.28-.15-2.66,1.31-2.81,2.78-.29,10.39,2.18,12.5,1.5.23-.07.7-.43.7-.57v-11.78c0-.14.67-1.59.82-1.7l2.12.02,8.2,10.72,9.23-8.85c.78-.73,2.1-.47,2.55.44.95,1.94-1.53,11.13-1.47,13.88l11.78.42v-7.36c0-.33-3.8-4.28-4.43-4.83-14.23-12.42-36.23-8.1-44.87,8.54-.79,1.53-1.66,6.79-4.13,5.56-2.37-1.17,1.38-7.43,2.34-9.03,10.99-18.35,36.33-20.75,51.09-5.5v-6.31c-25.76-20.15-62.65-1.16-60.18,31.78,1.06,14.15,11.67,26.97,24.93,31.45,1.65.56,6.67.98,6.99,2.68.43,2.3-2.88,1.85-4.16,1.64-14.31-2.35-27.02-16.19-30.15-30.02-7.42-32.88,26.62-59.98,56.83-45.05,1.97.97,3.66,2.55,5.73,3.31v-40.18c0-.55-3.12-9.79-3.47-10.42-.49-.9-1.1-1.6-2.21-1.61l-36.72,11.31c-1.9.21-2.71-1.41-1.57-2.85l35.86-11.69c3.18-.46,4.8-.24,6.84,2.21.56.67.56,1.72,1.26,1.9ZM58.1,120.14h9.89c2.43,0-.25,9.67.21,11.36,2.14-.77,6.4-6.77,8.21-6.72,1.58.04,5.71,7.28,7.35,8.41l.44-9.88c.06-.43.23-.83.58-1.1,1.61-1.26,8.89,1,11.19.88-2.21-2.94-5.84-5.14-7.18-8.6.19-1.93,7.16-5.58,8.44-7.38h-8.63c-5.82,0-.98-8.43-1.9-11.78-1.58,1-6.72,7.01-8.2,7.01-1.87,0-5.47-7.17-7.36-8.27-.53,2.87.06,7.26-.44,9.88-.08.44-.22.81-.58,1.1-1.28,1.03-8.66-1.14-10.77-.88-.79.58,7.58,7.03,6.75,8.6-.2,1.4-5.9,4.92-7.3,6.2-.41.38-.9.37-.71,1.19ZM101.02,123.5v-14.73l-7.98,6.15,7.98,8.58Z"/>
    <path class="cls-1" d="M156.91,52.5c27.81-.47,45.7,29.86,32.27,54.18-10.73,19.43-37.47,24.77-54.69,10.5-26.07-21.6-11.49-64.11,22.43-64.68ZM155.72,56.19c-23.8.63-38.37,26.8-27.76,47.96l27.76-47.96ZM186.85,104.15c10.64-21.06-4.03-47.37-27.76-47.96l27.76,47.96ZM157.81,60.81l-.86.26-10.07,18.25c7.11-2.79,14.53-3.07,21.45.42l-10.52-18.93ZM154.36,80.71c-5.58.67-10.68,4.3-13.65,8.93,6.3,10.07,20.06,12.08,29.32,4.63,4.89-3.93,4.68-5.64-.23-9.46-4.41-3.44-9.88-4.77-15.44-4.1ZM182.22,103.73l-5.9-10.94c-8.23,9.97-21.97,12.59-32.78,4.8-.87-.63-4.55-4.46-4.87-4.38l-6.11,10.52h49.65ZM184.75,107.09h-54.7c12.14,19.61,42.57,19.64,54.7,0Z"/>
    <path class="cls-1" d="M202,16c-.19-1.07-1.43-2.86-2.71-2.76l-84.79.24-1.05,1.05-.22,52.8c.11,1.97-1.84,3.17-3.16,1.46l.12-55.42c.79-1.53,1.89-2.55,3.44-3.29l87.23-.1c1.9.61,3.22,1.8,3.88,3.69.73,2.08,1.09,11.54.45,13.48-.24.71-.77,1.21-1.46,1.47l-1.72-.86c-.44-3.53.59-8.44,0-11.78Z"/>
    <path class="cls-1" d="M202,53.45l.97-.75c.88-.43,1.69.32,2.09,1.06l.32,106.99c.23,3.91-3.57,8.9-7.63,6.76-1.92-3.5,4.25-2.21,4.25-5.51V53.45Z"/>
    <path class="cls-1" d="M109.86,91.53c2.19-.79,3.09-.55,3.37,1.89l-.03,69.03c-.3.83,1.4,2.29,1.91,2.29h10.52c.21,0,1.1,1.06,1.07,1.49.22.54-.76,1.87-1.07,1.87h-10.94c-1.37,0-4.84-3.12-4.84-4.42v-72.16Z"/>
    <path class="cls-1" d="M188.9,165.22l-.12,2.49-1.27.41-51.8-.41c-.21-.31-.16-.73-.21-1.08-.26-1.85.67-1.79,2.32-1.91,15.77-1.15,32.92.92,48.84,0l2.24.5Z"/>
    <path class="cls-1" d="M177.28,36.94c1.21-1.19,3.19-.09,2.75,2.1-.21,1.04-3.76,9.5-4.35,10.39-1.32,1.95-3.41,1.31-3.04-1.34.11-.79,4.22-10.72,4.65-11.15Z"/>
    <path class="cls-1" d="M175.38,127.83c.43.42,4.54,10.34,4.67,11.15.36,2.22-1.9,3.12-3.24,1.09-.64-.97-3.97-9.03-4.18-10.15-.41-2.12,1.3-3.5,2.75-2.09Z"/>
    <path class="cls-1" d="M155.72,131.71c.1-.35,1.03-1.04,1.49-1.07.54-.22,1.87.76,1.87,1.07v12.62c0,.21-1.06,1.1-1.49,1.07-.54.22-1.87-.76-1.87-1.07,0-2.63-.52-10.77,0-12.62Z"/>
    <path class="cls-1" d="M136.57,36.55c.7,0,1.24.67,1.57,1.24.82,1.39,3.93,8.98,4.26,10.49.42,1.91-1.73,3.27-3.19,1.05-.5-.76-4.36-10-4.47-10.72-.14-.96.94-2.06,1.83-2.06Z"/>
    <path class="cls-1" d="M142.15,127.82c.53.52.4,1.25.25,1.9-.37,1.61-2.73,7.02-3.58,8.66-.33.65-.87,2.02-1.38,2.41-1.48,1.1-2.84-.09-2.6-1.73.16-1.09,3-7.64,3.68-8.97.46-.91.81-1.92,1.63-2.61.57-.31,1.56-.09,2,.34Z"/>
    <path class="cls-1" d="M159.08,45.88c-.35,2.11-3.37,1.19-3.37.42v-12.62c0-.21,1.06-1.1,1.49-1.07.54-.22,1.87.76,1.87,1.07,0,3.38.51,9.18,0,12.2Z"/>
    <path class="cls-1" d="M187.58,118.09c.53-.15.9-.04,1.4.12,1.65.51,6.3,7.22,8.42,8.43,1.21,1.99-.62,3.33-2.52,2.11-.69-.45-7.7-7.37-8.04-7.95-.63-1.06-.51-2.35.75-2.7Z"/>
    <path class="cls-1" d="M126.14,118.11c2.15-.64,2.83.94,1.83,2.68-.3.52-7.91,8.16-8.45,8.41-.31.14-.58.26-.93.14-.93-.3-1.72-.69-1.6-1.82.07-.66,8.51-9.22,9.15-9.41Z"/>
    <path class="cls-1" d="M118.15,48.67c.74-.21,1.02-.02,1.61.34.5.3,7.91,7.7,8.2,8.2.88,1.49.21,2.69-1.47,2.78-.24,0-.43-.13-.64-.23-.51-.24-7.43-7.21-8-8-.91-1.26-1.39-2.2.3-3.1Z"/>
    <path class="cls-1" d="M195.57,48.67c1.3-.37,1.83.41,2.17,1.51.12.35,0,.62-.14.93-.24.54-7.88,8.14-8.41,8.45-.28.17-.52.43-.88.42-1.47,0-2.29-1.18-1.67-2.54.26-.57,8.32-8.61,8.93-8.78Z"/>
    <path class="cls-1" d="M202,36.83c.89-.27,2.39-.7,2.95.32.48,1.73,1,8.74-.42,9.58-.56.49-2.53.19-2.53-.43v-9.47Z"/>
    <path class="cls-1" d="M46.64,40.26c1.36-.15,1.93.99,1.81,2.24,0,.38-.16.62-.44.86-.39.32-8.66,2.92-9.58,3.06-2.74.4-2.98-1.92-1.35-3.05.53-.37,8.78-3.02,9.56-3.11Z"/>
    <path class="cls-1" d="M156.03,82.79c9.75-1.58,10.97,12.73,2.38,13.75-9.3,1.11-10.46-12.44-2.38-13.75ZM156.44,86.14c-3.86.84-3.16,8.09,1.91,6.99,3.86-.84,3.16-8.09-1.91-6.99Z"/>
  </g>
</svg>