<?xml version="1.0" encoding="UTF-8"?>
<svg id="Layer_2" data-name="Layer 2" xmlns="http://www.w3.org/2000/svg" viewBox="0 0 106.68 225.52">
  <defs>
    <style>
      .cls-1 {
        fill: #e84d35;
      }
    </style>
  </defs>
  <g id="Augury13">
    <path class="cls-1" d="M60.62,112.21c.15-.48,5.31-2.38,6.15-2.54,4.13-.79,4.96,1.92,7.69,3.67,4.09,2.6,14.71,6.92,16.97,10.54.9,1.45.73,3.91,2.49,4.02-.02-1.29.18-2.61-.21-3.89-1.33-4.33-14.87-7.91-18.06-13.32-.82-1.39-.93-3.27-1.63-4.64-.76-1.46-2.2-2.64-2.88-4.36-1.19-3.04-1.12-7.19-1.35-10.47l3.37-.49c.25,2.83.12,6.73.99,9.38.16.48,4.22,8.37,4.58,8.93,3.44,5.32,14.94,6.88,17.78,13.11.86,1.87.49,3.2,1.04,4.76,1.21,3.43,5.13,8.01,6.72,12.59,6.8,19.54-1.64,40.35-15.17,54.77-4.29,4.57-10.02,7.47-11.54,14.04-1.07,4.62.73,12.73-3.96,15.35-3.51,1.96-6.14-.09-8.88-2.14-2.06,5.66-9.89,4.82-13.04.5-2.61,5.02-8.43,2.83-11.58-.48-4.38,6.04-9.84,1.83-11.48-3.98-1.21-4.3-.27-10.47-2.35-14.06-1.6-2.76-7.68-6.65-10.31-9.48C4.75,181.97-1.43,164.09.28,147.68h3.38c-1.78,16.89,4.86,34.65,17.12,46.35,2.65,2.53,6.64,4.63,8.48,7.93,2.64,4.76,1.09,10.53,2.85,15.48.73,2.07,1.81,4.06,4.31,3.54.43-2.06,1.58-2.91,3.68-2.89,2.34.02,2.32,1.37,3.94,2.38,5.09,3.2,4.01-1.88,7.64-1.88,2.67,0,3.3,3.14,6.27,3.42,4.74.46,3.2-3.38,5.81-3.88,4.31-.83,4.87,4.45,8.8,2.3,1.82-4.17.6-8.61,1.69-13.03,1.92-7.79,8.21-10.88,13.15-16.29,12.72-13.95,20.29-33.72,13.02-52.12-.41-1.04-3.78-7.92-4.17-8.15-.57-.34-2.7,1.04-4.93-.12-2.37-1.24-1.72-3.07-2.5-4.74-1.12-2.41-12.6-7.55-15.62-9.48-3.51-2.24-4.17-5.15-8.99-2.15-.47,2.98.64,9.23-3.47,10.07-5.2,1.06-4.24-5.65-5.41-6.46l-6.27-.66c-1.62,3.76-.63,15.28-6.55,14.98-5.12-.26-1.92-8.45-1.7-11.4.16-2.19.58-10.44-1.76-11.26-3.24-.77-5.89,1.35-8.33,3.1-1.67,1.2-5.94,5.86-6.82,6.25-1.81.82-2.94-1.86-4.58-.78-4.26,2.82-9.7,11.93-11.9,16.61-1.52,3.25-1.09,7.18-5.71,6.11,2.14-7.9,6.07-15.43,11.57-21.49,3.33-3.67,8.77-9.67,12.31-12.79,3.12-2.74,8.18-4.67,9.65-8.69,1.58-4.3.71-8.6.72-12.76,0-5.68.82-15.1,0-20.27-.23-1.41-1.26-2.02-1.67-3.16-.73-2.04-.66-11.83-.12-14.13,1.67-7.21,11.17-5.65,16.75-7.13l-.08-4.71c-13.58-8.24.56-24.82,2.52-35.81l7.32,12.7c2.48,5.8,6.37,15.03,1.62,20.61-2.33,2.73-4.66,1.48-3.64,6.74,5.7-.56,14.56,1.3,16.2,7.69,1.57,6.1.64,16.34.68,22.97.01,2.55,1.02,2.91-.36,5.87-.35.75-1.25,1.28-1.45,1.93-.43,1.48.08,3.58-.07,5.15l-3.41.78v-5.93c-2.03-1.32-2.84-2.1-3.26-4.57-.72-4.28-.62-9.26-1.09-13.63-1.26-1.7-.95,4.07-1.02,4.53-1.3,8.96-8.75,6.73-9.12-1.16-2.58,1.18-4.64-.49-7.23-.48-1.39,5.21-.5,18.5-9.17,14-.59,8.3,2.76,20.17-4.09,26.56-1.99,1.85-4.86,3.2-7.02,5.05-.62.53-4.84,4.51-4.33,5.07,4.6-3.34,8.89-8.49,15.21-7.73,7.74.93,4.67,16.5,4.09,21.73l2.65-11.58c1.96-4.66,5.51-1.29,8.04-1.69,1.04-.17.98-1.38,1.67-1.62,3.7-1.25,3.06,5.78,4.05,8.14.15.15.96-.62.96-.72v-8.2ZM56.76,32.81c9.78-3.95.73-18.23-2.17-24.61-2.19.92,1.64,7.34,2.18,8.92,1.71,4.98,3.43,11.1-.01,15.69ZM52.4,14.96c-1.1-.2-.77.07-1.07.62-2.38,4.31-4.87,13.55.42,16.68,6.82-2.84,2.26-12.28.65-17.3ZM72.16,75.26c.96-1.63.05-2.95.01-4.54-.13-5.94.49-12.53.02-18.35-.23-2.83-.68-5.3-3.13-7.01-5.16-3.61-19.71-1.53-25.92-.34-7.67,1.47-5.75,4.08-5.67,10.74.01.99-.51,1.93-.48,2.84.12,3.03,1.86,3.61,4.34,4.43-.19,3.96,0,7.92.94,11.77,3.17-3.42.67-14.99,6.99-15,1.48,0,3.79,1.17,4.74.93,1.01-.25,2.03-2.81,4.14-1.8l2.23,8.14c2.31-1.24.61-8.98,1.23-9.63,2.17-.05,4.32-1.07,6.49-1.01,1.07.03.59-.03.72.74.99,5.85.86,12,1.89,17.82l1.45.25Z"/>
    <path class="cls-1" d="M21.42,152.65c5.48-.66,19.78.97,23.77,4.92,5.19,5.13-.21,15.63-6.11,18.05-7.19,2.95-25.2.26-27.36-8.71-1.88-7.8,1.87-13.31,9.7-14.26ZM21.9,156.02c-5.72.69-8.45,4.14-6.91,10.02,1.77,6.77,18.69,9.06,23.87,5.98,3.23-1.92,7.26-9.84,3.39-12.49-4.07-2.79-15.51-4.09-20.35-3.51Z"/>
    <path class="cls-1" d="M88.62,172.78c-2.45-3.54.79-3.78,1.59-6.84.53-2.01.78-4.77-.63-6.43-3.87-4.57-23.29-3.96-27.76-.24-2.34,1.95-1.84,3.63-.81,6.13,3.47,8.43,12.04,9.3,20.08,7.96l1.73,3.29c-8.24,1.1-16.48,1.35-22.19-5.56-4.96-5.99-6.05-13.22,2.41-16.39,6.61-2.47,24.15-3.16,29.16,2.67,3.65,4.24,1.61,13.28-3.58,15.41Z"/>
    <path class="cls-1" d="M44.85,194.34c-4.56-4.52,2-17.06,6.82-17.16,4.45-.09,11.27,8.58,10.85,13.16-.62,6.64-13.75,7.89-17.67,4ZM47.22,191.98c2.45,1.72,10.39,1.53,11.71-1.34,1.44-3.14-4.4-8.91-7.24-10.01-2.39,1.61-6.86,8.96-4.47,11.35Z"/>
  </g>
</svg>