<?xml version="1.0" encoding="UTF-8"?>
<svg id="Layer_2" data-name="Layer 2" xmlns="http://www.w3.org/2000/svg" viewBox="0 0 184.33 184.47">
  <defs>
    <style>
      .cls-1 {
        fill: #e84d35;
      }
    </style>
  </defs>
  <g id="Augury13">
    <g>
      <path class="cls-1" d="M184.33,91.19v6.48l-1.55,11.58c-6.76,37.71-37.55,67.9-75.41,73.96l-9.44,1.18c-3.81-.16-7.72.22-11.52,0-25.41-1.49-50.12-14.5-65.97-34.28-1.08-2.48,1.45-4.93,3.89-3.53,20.74,25.09,52.46,36.93,84.77,30.8,37.52-7.12,66.87-39.71,69.46-77.92l-6.9,11.99c-4.55,6.39-9.99,12.14-16.38,16.73-1.12.81-4.41,3.2-5.5,3.5-2.62.72-4.33-.89-3.54-3.54.27-.89,6.34-4.65,7.65-5.67,9.16-7.13,15.49-16.06,20.16-26.63.72-1.62,1.11-3.5,1.81-5.02,1.92-4.18,6.63-3.59,8.46.36Z"/>
      <path class="cls-1" d="M163.81,184.4c-2.33-1.63-2.73-2.74-2.51-5.57.07-.91.8-2.79.54-3.41-.46-1.1-3.62-2.89-4.06-4.59-1.36-5.25,3.74-5.62,7.47-6.03,3.14-8.34,8.38-8.47,11.21.12,3.16.33,6.77.04,7.86,3.66v1.8c-.45,1.6-3.93,3.84-4.25,4.94-.77,2.59,2.81,7.14-2.23,9.1h-2.16l-4.8-2.44-4.56,2.44h-2.52ZM177.13,170.37c-3.68-.19-4.6-1.5-6.47-4.32-.67,3.08-2.82,4.08-5.76,4.32,2.21,2.18,3.14,4.02,2.16,7.19.23.24,2.87-1.39,3.78-1.39s3.64,1.54,3.78,1.39c-.6-3.38.1-4.9,2.52-7.19Z"/>
      <path class="cls-1" d="M95.29,7.58c-1.15,1.18-4.96,2.06-6.71,2.83-18.25,8.01-32.31,22.6-37.91,42-13.94,48.33,28.86,93.53,77.93,82.22,2.01-.46,8.45-2.97,9.74-2.71,1.65.33,2.52,2.37,1.88,3.89-.61,1.43-5.08,2.6-6.65,3.07-31.8,9.45-66.34-4.87-82.14-33.76C31.4,68.48,47.19,22.38,85.33,6.09c-9.58.29-19.25,3.13-28.07,6.85-2.4,1.01-7.71,5.01-9.74,2.52-2.64-3.23,3.47-5.58,5.64-6.62C63.01,4.11,81.16-.89,92,.13c3.88.37,6.07,4.58,3.28,7.45Z"/>
      <path class="cls-1" d="M39.48,17.17c1.96-.11,3.59,2.08,2.6,3.98-.66,1.27-6.98,5.76-8.6,7.24C2.54,56.74-3.5,103.85,19.02,139.33c.64,2.81-2.94,4.13-4.78,2.23-.95-.98-3.8-6.46-4.58-8.02C-9.37,95.46.53,48.62,33.12,21.55c1.15-.96,5.19-4.32,6.36-4.39Z"/>
      <path class="cls-1" d="M117.63,49.36c1.63-2.47,2.98-8.53,6.12-9.18,6.23-1.28,6.32,5.3,9.12,9.07,3.03,1.34,9.11.25,10.93,3.47,2.84,5.04-3.85,7.95-6.21,11.38.09,3.26,2.32,7.74.61,10.67-3.28,5.6-9.08-.46-13.08-1.8-3.46,1.56-9.36,6.69-12.58,2.37-2.35-3.16.34-7.68.09-11.23-2.06-3.02-7.39-5.54-6.7-9.71.84-5.09,8.07-3.78,11.71-5.04ZM125.64,46.57c-.84-.18-.58.11-.8.46-1.13,1.74-2.15,5.48-3.74,6.68-1.98,1.5-6.33,1.41-8.77,1.85,1.81,2.72,6.21,4.77,6.09,8.4-.04,1.2-1.48,6.49-1.05,7.07,2.05-.93,5.56-3.62,7.73-3.63,2.49-.01,5.87,2.56,8.1,3.63.36-.48-1.07-5.88-1.09-7.04-.05-3.67,4.28-5.69,6.13-8.43-2.6-.52-6.97-.2-8.98-2-1.49-1.33-2.7-5.11-3.63-7Z"/>
      <path class="cls-1" d="M93.69,84.63c1.45,1.05,5.42-.37,7.28,2.62,2.62,4.2-3.19,6.19-3.71,8.16-.52,1.98,2.1,5.18-.4,7.75-3.05,3.15-6.63-1.31-8.81-1.17s-5.02,3.87-8.12,1.61c-3.06-2.23-.34-6.3-.79-8.2-.47-2-5.09-2.71-4.18-7.19.82-4.05,6.15-2.43,7.75-3.58.4-.29,1.74-4.17,2.59-5.05,1.53-1.59,4.32-1.28,5.79.26.99,1.03,2.25,4.55,2.59,4.79ZM94.33,90.12c-3.69.4-4.7-1.73-6.48-4.32-.68,3.04-2.59,4.61-5.76,4.32.23,1.49,2.09,1.98,2.44,3.49.33,1.43-.1,2.69-.28,4.06,3.03-2.14,4.83-1.5,7.92,0-1.38-3.21-.09-5.3,2.16-7.55Z"/>
      <path class="cls-1" d="M142.84.22c4.12-.79,4.89,3.59,6.57,6.23,2.43.44,6.78.23,7.49,3.31,1,4.33-3.73,5.24-4.19,7.19-.49,2.12,2.41,5.8-.76,8.22-2.93,2.24-5.43-.43-8.11-1.62-2.89.86-5.47,4.01-8.45,1.59-3.1-2.52-.16-5.96-.79-8.18-.53-1.85-4.91-3.09-4.19-6.83.67-3.45,4.81-3.23,7.49-3.68,1.84-1.89,1.94-5.65,4.95-6.23ZM147.61,19.22c-.76-3.04-.32-5.05,2.15-7.02-1.22-.91-2.61-.36-3.94-1.45-1.04-.85-1.08-2.14-2-3.04-1.47,3.11-2.84,4.01-6.3,4.32,2.46,2.33,3.22,3.72,2.52,7.19,1.26-.13,2.1-1.36,3.45-1.42,1.47-.06,2.73,1.21,4.11,1.42Z"/>
      <path class="cls-1" d="M12.52.22c4.12-.79,4.89,3.59,6.57,6.23,2.43.44,6.78.23,7.49,3.31,1,4.33-3.73,5.24-4.19,7.19-.49,2.12,2.41,5.8-.76,8.22-2.93,2.24-5.43-.43-8.11-1.62-2.89.86-5.47,4.01-8.45,1.59-3.1-2.52-.16-5.96-.79-8.18-.36-1.25-3.62-2.86-4.11-4.92-1.13-4.74,3.97-5.33,7.41-5.6,1.84-1.89,1.94-5.65,4.95-6.23ZM13.68,7.71c-1-.2-1.03,1.32-1.64,2.13-1.58,2.1-2.78,1.32-4.83,2.36,2.38,1.93,3.46,3.97,2.15,7.01,1.38-.2,2.63-1.48,4.11-1.42,1.37.06,2.47,1.25,3.81,1.42-.85-3.03-.35-5.1,2.15-7.02-1.24-.91-2.58-.37-3.94-1.45-.8-.64-1.61-2.04-1.82-3.04Z"/>
      <path class="cls-1" d="M150.75,69.67c4.18-.9,4.39,4.71,1.27,5.27s-4.64-4.55-1.27-5.27Z"/>
      <path class="cls-1" d="M18.27,166.51c3.09,3.07-2.82,6.85-4.39,3.13-1.22-2.89,2.39-5.12,4.39-3.13Z"/>
      <path class="cls-1" d="M77.31,46.98c3.22-.59,4.22,4.62,1.27,5.27-4.16.91-4.41-4.69-1.27-5.27Z"/>
      <path class="cls-1" d="M115.47,111.42c4.16-.91,4.41,4.69,1.27,5.27-3.22.59-4.22-4.62-1.27-5.27Z"/>
    </g>
  </g>
</svg>