<?xml version="1.0" encoding="UTF-8"?>
<svg id="Layer_2" data-name="Layer 2" xmlns="http://www.w3.org/2000/svg" viewBox="0 0 713.44 671.91">
  <defs>
    <style>
      .cls-1 {
        fill: #fff;
      }
    </style>
  </defs>
  <g id="Vesperine">
    <path class="cls-1" d="M43.97,346.16c-.64-3.02-6.61-6.15-9.32-7.66-10.87-6.05-23.77-10.08-34.65-16.32.08-2.65,38.31,6.63,41.49,6.58,3.52-.05,4.76-.81,5.81-4.25,1.62-5.3,3.83-31.42,2.45-36.1l-18.78-14.68c5.28-1.32,19.13,6.42,22.46.97l12.48-50.37c-.44-7.09-17.58-11.88-22.98-15.06-1.29-.76-2.52.18-1.97-2.48,5.09,1,10.36.55,15.47,1,4.43.4,12.46,3.26,16.07,1.05,2.28-1.39,14.31-22.44,17.19-26.76,5.19-7.78,12.47-12.84,13.24-22.72.61-7.84-1.91-15.63-1.02-23.51l11.61,18.9c2.28.39,19.86-17.44,22.32-20.42.85-1.03,4.3-4.99,4.54-5.5,2.03-4.37-8.63-21.67-10.51-26.93,1.14-1.18,16.76,13.72,18.63,14.83s5.44,2.5,7.58,1.97c11.59-7.37,24.3-12.92,36.05-19.98,4.95-2.97,25.65-15.59,28.22-18.73,3.11-3.79-2.07-14.92-3.28-19.85-1.36-5.57-2.88-11.46-3.28-17.19,6.03,5.34,16.88,30.42,24.51,30.93l34.71-7.91c3.51-2.15,2.97-12.05,3.71-16.03,4.38,1.31,5.06,7.51,8.93,10.53,3.99,3.11,11.34,1.95,16.28,1.2,14.27-2.18,29.22-7.93,43.97-8.98,1.22-.37,1.99-1.31,2.75-2.24,5.66-6.93,4.16-40.28,8.47-50.46,1.87,1.18,1.21,2.88,1.51,4.48,1.68,9.02,2.64,41.26,7.54,46.41.7.73,1.4,1.33,2.4,1.6,28.75,5.61,57.16,12.4,86.25,16.23,8.3-1.11,19.45-25.36,26.68-30.76-.69,7.78-11.4,28.49-8.46,34.95,1.08,2.38,12.72,7.9,15.78,9.18,3.72,1.56,19.29,7.35,22.31,7.52,6.16.35,18.45-16.88,22.81-21.7l8.5-7.97-13.56,31.92c-2.31,8.12,12.36,15.42,18.64,19.44,3.05,1.95,15.26,10.06,17.64,10.4,5.99.87,21.51-16.56,23.23-14.81-1.19,6.67-11.75,18.58-9.45,24.92.75,2.06,11.62,14.55,13.94,17.05,1.36,1.47,7.53,8.06,8.54,8.51,3.36,1.51,6.97-3.65,10.95-2.53l-3.6,10.02,23.55,26.53c3.98,1.21,11.5-3.82,15.74-5.36,3.38-1.23,7.03-1.54,10.26-3.22.26,1.66.04,2.24-1.02,3.47-3.3,3.83-10.99,8.46-13.96,13.01-1.36,2.08-2.13,4.39-1.98,6.91,10.77,19.56,18.16,40.6,24.91,61.82,2.89,3.57,10.55.68,14.49.66,7.27-.03,14.28,1.11,21.52,1.05.48,2.77-.58,1.68-2.19,2.25-6.52,2.31-27.22,5.8-29.35,12.69l5.57,60.23c.5.93,2.97,2.03,3.97,2.26,8.03,1.87,23.87-4.13,32.99-3.5.5,2.65-.56,1.74-2,2.44-6.29,3.07-31.05,11.62-33.82,15.18s-3.23,16.13-4.43,21.54c-4.21,18.97-14.7,41.95-17.23,59.68-.41,2.84-1.71,7.09,1.21,8.88,5.02,3.09,21.68-.31,28.31,2.65-6.79,6.06-31.37,7.03-36.41,12.54-2.99,3.27-8.44,18.2-11.37,23.6-3.64,6.71-20.09,29.72-20.75,34.26-.18,1.23-.15,1.57.32,2.73,1.92,4.78,26.09,18.71,31.97,24.06,1.08.98,2.8,1.08,2.27,3.21-12.24-3.56-25.92-11.68-38.15-14.28-3.99-.85-6.03-1.5-9.75.84-2.52,1.59-15.14,12.92-17.52,15.45-3.19,3.39-5.57,6.94-3.73,11.7,3.7,9.59,15.56,22.19,20.84,32.1.73,1.37,1.77,2.31,1.35,4.14l-33.41-30.01c-1.74-1.41-3.89-1.11-5.94-.88-4.48.49-24.92,10.61-29.49,13.49-3.96,2.5-21.1,15.46-20.6,19.51.46,3.73,14.82,17.33,18.07,21.82.98,1.36,1.87,2.07,1.44,4.04-8.29-3.62-26.27-18.02-34.45-18.07-2.8-.02-25.25,8.24-27.02,10.03-5.56,5.64,2.67,14.83,1.53,16.02-6.87-1.6-11.5-10.57-18.49-11.05-17.91,3.14-35.56,8.92-53.98,8.11-9.45-1.63-2.2-3.54,2.01-5.09,12.5-4.62,35.03-12.77,47.44-15.49,11-2.41,11.07-2.93,21.05-6.93,6.18-2.48,25.87-7.19,29-9.96,1.44-1.27,2.12-3.4,3.41-4.59,3.05-2.81,6.89-5,9.53-8.46.15-.76-.92-.62-1.47-.48-8.87,2.28-26.08,7.3-34.17,10.79-9.37,4.05-18.88,12-27.8,17.15-1.59-.84,2.34-3.1-.99-3-7.57.22-17.79,4.26-26.11,4.88-6.62.5-17.04-.06-23.62-1.14-1.81-.3-3.31-.53-2.73-2.71l44.72-11.73c7.35-3.56,27.56-5.55,26.02-16.48-.61-4.28-10.8-28.53-9.79-29.73,2.59-.6,1.74.76,2.57,1.88,3.68,4.99,16.46,25.56,21.12,26.92,2.33.68,18.64-4.28,22.04-5.54,2.8-1.04,5.79-1.97,8.25-3.74,3.07-2.2,16.59-16.62,16.45-19.63-.41-9.22-21.47-31.93-25.49-41.84l37.54,31.97c20.49-6.35,40.28-20.81,48.33-41.48l-25.93-31.45,32.55,19.99c3.07.17,5.91-3.94,7.61-6.31l18.74-45.25c.09-2.12-.62-3.36-2.03-4.83-5.9-6.16-19.61-12.27-26.81-18.14-1.13-.92-2.62-1.98-3.08-3.4,7.22,1.5,29.41,12.84,35.23,11.82,1.09-.19,2.43-1.06,3.26-1.82,5.72-5.24,7.32-38.29,6.53-46.54-.21-2.17,0-2.65-1.48-4.51-4.62-5.83-33.94-6.43-41.53-10.42l39.25-2.7c7.45-1.68,9.28-15.04,10.43-21.54,2.41-13.65,2.92-25.77-.03-39.39-.52-2.41-2.02-9.13-3.24-10.75-4.96-6.58-31.42-.58-39.42-2.05.93-2.25,4.17-2.55,6.23-3.25,5.23-1.78,25.33-5.53,27.68-7.28,4.09-3.04-.39-11.04-2.09-14.79-2.2-4.86-16.75-29.29-20.54-30.4-7.4-2.18-40.57,7.1-42.25,5.78-.51-2.58.55-1.75,1.94-2.5,6-3.24,32.42-10.89,34.49-15.49,2.41-5.36-6.5-23.01-9.66-28.26-2.38-3.96-11.8-17.51-16.27-17.58-2.43-.04-12.02,4.63-14.88,6.02-5.9,2.86-12,8.18-18.61,8.85l23.99-20.45c5.71-6.49-7.48-13.65-5-21.5-7.97,1.19-12.91-5.56-19.07-9.4-4.37-2.73-16.88-11.08-20.88-12.12-1.63-.42-2.54-.64-4.28-.28-5.62,1.15-18.45,22.22-24.7,25.8,2.06-9.23,8.75-17.81,11.74-26.7,1.11-3.31,2.2-5.38-.52-8.3-2.06-2.21-19.94-12.9-22.96-13.71-6.93-1.86-26.98-2.52-34.77-2.28-2.28.07-11.17.79-12.74,1.24-1.79.51-2.93,2.67-3.89,4.1-4.51,6.71-7.57,17.16-11.59,23.38-.86,1.33-1.19,2.69-3.2,2.28-.11-6.11,6.27-28.57,3.09-32.56-.95-1.2-25.55-9.32-28.86-10.1-4.71-1.1-16.09-3.55-19.74-.34-2.99,2.63-7.41,31.99-9.4,38.55-.41,1.34-.08,3.1-2.03,3.45l-1.52-43.94c-2.82-6.38-27.48-5.63-33.95-5-3.45.33-16.07,3.57-18.8,5.18s-2.76,4.26-2.6,7.14c.49,8.86,5.22,18.61,5.9,27.63-2.3.34-3.81-3.97-4.8-5.69-2.11-3.66-10.8-23.4-12.84-24.12-1.88-.48-3.72-.22-5.6.08-4.28.7-29.87,12.06-32.14,14.81-1.12,1.35-1.54,2.39-1.37,4.18.83,8.8,9.59,22.22,10.79,31.72-6.54-3.77-18.63-27.76-23.9-29.53s-21.78,3.51-27.56,5.54c-3.35,1.18-6.78,2.27-9.81,4.18-4.9,3.09-21.29,18.9-21.64,24.38-.45,6.88,17.89,27.53,19.97,35.4-5.26-4.53-10.76-8.89-15.99-13.47-3.78-3.31-12.26-14.09-17.23-13.33-2.94.44-20.81,12.26-24.2,14.84-7.25,5.52-24.84,22.21-29.35,29.59-4.03,6.6-10.66,30.51-10.9,38.1-.16,4.89,3.45,5.55,7.09,7.38,9.67,4.86,20.99,7.88,30.65,12.35,1.5.69,2.47-.14,1.98,2.45-12.58-.96-27.16-5.54-39.5-6.02-1.59-.06-2.98-.05-4.52.47-2.85.96-13.56,18.15-15.1,21.86-5.34,12.9-7.47,35.39-5.84,49.15.24,2.01,2.84,7.47,4.52,7.47h34.97c.58,0,1.75-1.79,2.5.99-9.77,4.94-29.35,5.29-37.89,10.57-3.78,2.34-4.68,7.76-5.05,11.93-1.34,14.88-.88,45.44,3.52,59.38,1.37,4.34,8.65,21.44,12.41,22.62,6.4,2.02,32.24-10.25,41-9.58-5.6,6.54-33.43,15.83-36.21,22.22s4.92,24.98,8.79,30.66c2.04,2.99,14.29,15.21,17.14,15.85,1.24.28,2.44.39,3.7.18,3.74-.6,33.96-26.61,35.53-24.96-.97,2.94-3.99,6.01-6.01,8.47-4.27,5.19-21.3,23.05-21.77,28.25-.33,3.62,7.52,15.23,9.98,18.56,9.54,12.9,26.52,26.57,41.53,32.4,7.17,2.78,14.16,6.51,19.66.16,8.79-10.14,14.78-24.57,23.55-34.89l-13.78,41.72c-.66,2.58.1,4.78,1.78,6.75,3.08,3.59,25.45,20.78,29.59,22.36,3.55,1.36,15.12,3.35,17.88,1.09,3.02-2.48,11.29-26.32,14.05-31.95.7-1.44-.22-2.51,2.45-1.99-1.28,8.73-3.17,17.7-3.97,26.49-.57,6.29-2.08,10.91,4.96,13.97,8.09,3.5,22.26,4.64,30.25,8.71,1.25.64,2.82,1.65,2.73,3.26-10.91,2.81-24.04,1.98-34.98-.98-3.65-.99-7.87-3.67-10.7-4.29-6.39-1.4-14.55-1.04-21.46-2.51-13.44-2.87-19.95-9.46-30.24-17.71-3.43-2.75-10.7-10.85-13.58-12.39-4.43-2.37-14.06-3.65-19.45-5.53-25.97-9.03-42.49-25.38-56.83-48.07-2.32-3.67-5.09-11.29-7.12-13.86-3.1-3.91-13.04-9.5-17.45-13.52-2.86-2.61-4.98-5.6-7.49-8.5-1.48.77.22,2.41.71,3.29,2.26,4.03,5.57,7.79,7.96,12.02,3.87,6.88,5.97,14.67,11.81,20.16,8.02,7.54,16.95,13.76,24.5,22.45,4.65,5.36,10.4,16.04,14.96,20.01,5,4.35,15.84,7.63,21.81,11.15,8.68,5.12,18.29,15.72,26.13,19.83,5.77,3.03,21.75,5.21,29.49,7.47,22.02,6.44,42.82,16.27,63.96,24.95,3.28,1.35,15.07,4.3,16.5,6.48,3.14,4.77-12.6,2.23-14.9,1.91-23.27-3.22-45.42-13.61-67.79-20.12-4.04-1.18-19.27-6.01-22.15-5.72-2.39.24-4.05,1.84-5.58,3.5-8.76,9.51-14.49,25.29-23.97,34.46l12.57-41.93c.37-1.78-.7-4.04-1.74-5.38-2.11-2.72-20.78-14.68-24.9-17.05-2.3-1.32-7.07-4.44-9.4-4.66-7.73-.72-18.63,12.45-25.48,16.07-2.2-2.86,13.64-19.9,11.52-27.99-.7-2.69-5.49-8.14-7.51-10.5-3.56-4.13-22.67-23.53-26.32-24.72-6.22-2.03-23.16,12.75-30.65,13.25,4.05-7.02,21.79-19.6,20.98-27.37-.21-2.08-3.34-6.36-4.58-8.5-7.07-12.13-16.64-23.51-23.67-35.76l-8.98-1.05-34.69,13.75c-1.27-1.31,5.9-6.49,7.07-7.41,5.76-4.55,22.27-14.34,25.31-19.65.72-1.26,1.37-2.79,1.29-4.26-3.76-10.55-7.69-21.13-10.96-31.86-1.52-4.99-2.33-14.42-4.71-18.27-3.45-5.6-23.1-10.99-29.94-14.01-1.23-.54-4.01-.95-4.04-2.43,5.49.11,11.02-.18,16.52-.05,2.74.06,16.44,3.16,16.44-1.46v-40.96ZM470.55,87.91c-6.29-8.05-12.28-5.92-20.47-7.01-30.97-4.11-61.4-11.6-91.92-18.04-8.42,1.8-17.11,2.67-25.49,4.57-1.11.25-3.23,0-2.98,1.49,10.11.89,20.21,2.58,30.2,4.27,2.55.43,5.74,2.29,7.4,2.44,2.07.2,5.87-1.56,8.81-1.74,8.95-.55,19.46,1.44,28.04,4,10.04,3,20.02,10.02,29.94,10.02h36.46ZM301.71,74.93c-17.42-.53-34.12,5.64-50.94,9.49-5.22,1.2-12.91,1.38-17.27,2.71-1.69.52-26.42,16.79-29.81,19.17-1.2.84-2.45.04-1.87,2.59,9.46-5.26,19.16-7.63,29.73-9.72,4.18-.82,7.93.15,12.41-1.57,12.96-4.98,23.67-16.67,39.37-18.57,3.83-.46,7.96.43,11.66-.33,1.38-.28,5.87-2.35,6.71-3.76ZM524.5,111.88c-4.32-5.59-8.35-10.14-15.98-9.97,4.65,4.15,8.94,10.5,15.98,9.97ZM192.82,112.89l-39.49,20.94c-31.78,31.73-64.23,60.23-77.89,104.93-3.54,11.59-4.57,22.75-6.94,33.99-.68,3.22-4.86,8.34-5.49,12.52-1.38,9.11.24,20.71-1.18,30.79-.91,6.49-5.62,17.42-5.81,22.17-.78,18.58,5.15,38.9-.12,57.84l19.06,63.69,14.46,16.76c0-4.92-2.32-9.91-3.23-14.75-.79-4.21-.52-11.12-1.47-14.51-.53-1.87-6.81-10.63-8.31-13.67-11.62-23.48-13.21-47.29-11.46-73.44.46-6.85,3.87-17.17,3.8-23-.04-3.33-2.25-9.13-2.68-13.1-2.14-19.88,1.9-35.23,5.11-54.58,4.58-8.38,16.75-20.89,19.27-29.68,4.1-14.32,5.38-30.19,10.7-44.25,14.32-19.41,32.08-35.8,53.04-47.86,3.48-2,13.55-5.56,15.38-7.11,2.35-1.99,8.13-12.56,11.29-16.17,3.67-4.2,8.13-7.51,11.96-11.51ZM566.15,136.18c-3.09-.63-7-4.44-9.2-5.3-1.71-.67-2.01,1.37-1.47,1.97.14.15,2.08.37,3.04,1.43,6.31,6.96,13.2,14.03,19.91,21.09.98,1.03,6.9,7.55,8.02,6.46l-20.29-25.65ZM630.04,470.19c13.59-14.2,11.35-26.22,15.8-43.64,3.92-15.36,10.61-29.87,14.03-45.91,5.18-24.3,2.54-32.87.5-56.46-1.08-12.5-.66-35.56-3.47-46.48-.88-3.41-4.75-9.5-6.27-13.71-6.69-18.55-12.61-39.01-23.06-55.86-5.67-9.14-14.67-17.57-22.14-25.3,1.94,7.03,5.98,13.18,8.44,20.02,1.88,5.23,2.61,12.57,4.77,17.21,6.2,13.28,21.32,26.72,26.52,42.42,1.95,5.89,1.33,11.11,2.45,16.53,1.73,8.36,7.8,18.98,8.79,27.18,1.37,11.31-1.4,28.76-4.1,39.92-3.41,14.1-5.06,14.57-4.88,30s.23,38.5-6.52,51.51c-7.5,14.47-11.79,27.71-18.32,42.62-.4.92-5.49,9.87-3.68,9.31,3.36-2.74,8.22-6.27,11.15-9.33ZM530.49,573.43l37.44-15c7.04-13.71,25.02-22.58,33.92-34.01,4.74-6.08,11.82-19.07,15.72-26.23,2.5-4.59,5.13-9.71,6.81-14.66l-21.99,20.46c-4.58,10.85-13.04,19.85-17.9,30.01-5.49,2.09-12.43,13.58-16.56,15.45-.53.24-1.69.19-1.48-.48l2.5-5.5c-6.66,6.81-20,9.15-26.71,14.97-3.94,3.41-7.32,11.3-11.75,14.99Z"/>
    <path class="cls-1" d="M388.63,256.74h83.42c4.98,0,3.52,23.34,3.54,27.51,0,2.59-1.11,5.12-1.13,7.95-.07,7.65,4.03,18.7-1.41,25.48h-84.42v350.16c0,2.49-3.48,3.28-5.48,3.5-16.58,1.79-36.1-1.37-53.01.05-1.18.06-2.08-.3-3.02-.98-4.82-3.42-1.34-26.2-2.47-32.58-1.98-100.32,6.15-206.34,1.09-306.71-.23-4.49-1.68-8.85-1.05-13.44h-81.42c-2.49,0-3.28-3.48-3.5-5.48-1.22-11.32-1.1-36.56-.05-48.02.17-1.84,1.52-7.45,3.54-7.45h80.92l1.5-1.5v-100.9c0-1.27,3.13-2.37,4.45-2.55,15.94-2.15,36.58,1.74,53.05,0,1.46-.63,5.44,2.94,5.44,3.55v101.4ZM370.65,168.83h-27.97v101.4c0,1.04-2.46,3.5-3.5,3.5h-81.42v26.97h81.42c.25,0,3.5,3.25,3.5,3.5v350.16h25.48c.33,0,1.52-1.32,2.5-1v-348.16c0-.52,3.09-4.5,3.5-4.5h83.42l-1-26.97h-82.42c-.41,0-3.5-3.97-3.5-4.5v-100.4Z"/>
  </g>
</svg>