<?xml version="1.0" encoding="UTF-8"?>
<svg id="Layer_2" data-name="Layer 2" xmlns="http://www.w3.org/2000/svg" viewBox="0 0 380.92 354.57">
  <defs>
    <style>
      .cls-1, .cls-2, .cls-3 {
        fill: #e6b44e;
      }

      .cls-2 {
        font-family: Georgia-Bold, Georgia;
        font-size: 30.9px;
        font-weight: 700;
        letter-spacing: .3em;
      }

      .cls-3 {
        font-family: Georgia, Georgia;
        font-size: 72px;
      }
    </style>
  </defs>
  <g id="Sanguine">
    <g>
      <path class="cls-1" d="M231.76,169.07c-.29-3.39-1.55-8.99-6.19-12.12-4.99-3.38-17.64-8.74-20.2-14.2-8.18-17.42-10.03-62.04,1.01-77.81,4.1-5.86,9.17-8.08,9.17-8.08l-26.29.17-25.71-1.18s5.9,3.93,10.18,9.96c11.16,15.75,10.44,60.22,1.04,77.07-3.1,5.57-15.58,9.61-21.43,15.02-2.89,2.68-4.48,6.25-5.6,10.66-.83,3.27,0,13.48,0,13.48h84.03s.28-9.73,0-12.96ZM157.47,174.06s-.56-6.08,1.38-8.6c4.06-5.27,20.85-11.83,24.84-18.45,4.85-8.05,5.23-28.87,4.82-38.26-.4-8.98-.93-26.35-2.76-35.15-.6-2.91-4.51-10.98-4.51-10.98l16.82-.03s-3.31,8.13-3.87,10.98c-1.7,8.82-1.79,25.95-1.95,34.92-.18,9.65.64,31.38,5.79,39.25,4.33,6.62,19.88,11.11,23.95,17.89,1.09,1.83,1.21,8.43,1.21,8.43h-65.71Z"/>
      <path class="cls-1" d="M136.4,0c-.25,2.23-.24,3.48-.24,5.77,0,31.9,24.46,57.67,54.3,57.67s54.02-25.86,54.02-57.76c0-2.24.28-5.69.28-5.69h-108.36ZM234.87,12.65c-1.82,20.71-20.64,41.18-45.38,41.18s-41.69-20.4-44.76-41.4c-.24-1.61-.35-2.39-.29-4.08h90.83s-.26,2.72-.4,4.3Z"/>
    </g>
    <text class="cls-3" transform="translate(0 288.19)"><tspan x="0" y="0">SANGUINE</tspan></text>
    <text class="cls-2" transform="translate(48.1 345.2) scale(1.15 1)"><tspan x="0" y="0">HOLDINGS</tspan></text>
  </g>
</svg>