<?xml version="1.0" encoding="UTF-8"?>
<svg id="Layer_2" data-name="Layer 2" xmlns="http://www.w3.org/2000/svg" viewBox="0 0 562.67 562.67">
  <defs>
    <style>
      .cls-1 {
        fill: #ea4335;
      }

      .cls-2 {
        fill: #36a955;
      }

      .cls-3 {
        fill: #fff;
      }

      .cls-4 {
        fill: #4285f4;
      }

      .cls-5 {
        fill: #fbbc06;
      }
    </style>
  </defs>
  <g id="Layer_1-2" data-name="Layer 1">
    <g>
      <circle class="cls-3" cx="281.34" cy="281.34" r="281.34"/>
      <path class="cls-5" d="M258.46,344.72l-24,136.12c-.92,5.23-5.47,9.04-10.78,9.04h-84.78c-6.8,0-11.95-6.14-10.78-12.83L201.9,56.53c.92-5.23,5.46-9.05,10.78-9.05h189.67c6.8,0,11.96,6.14,10.78,12.84l-13.08,74.18c-.92,5.23-5.47,9.04-10.78,9.04h-86.15c-5.31,0-9.85,3.81-10.78,9.04l-13.08,74.18c-1.18,6.7,3.97,12.84,10.78,12.84h28.71c6.8,0,11.96,6.14,10.78,12.84l-13.08,74.18c-.92,5.23-5.47,9.04-10.78,9.04h-36.43c-5.31,0-9.85,3.81-10.78,9.04Z"/>
      <path class="cls-2" d="M402.35,47.52h-189.67c-5.31,0-9.86,3.81-10.77,9.05l-49.15,280.19h111.84c1.42-.67,2.98-1.04,4.64-1.04h36.43c5.31,0,9.85-3.81,10.77-9.03l13.09-74.19c1.18-6.7-3.97-12.85-10.77-12.85h-28.73c-6.8,0-11.95-6.13-10.77-12.83l13.09-74.19c.93-5.22,5.46-9.03,10.77-9.03h86.15c5.31,0,9.86-3.81,10.79-9.05l13.07-74.18c1.18-6.7-3.97-12.85-10.77-12.85Z"/>
      <path class="cls-1" d="M402.33,47.44h-189.65c-5.31,0-9.86,3.81-10.79,9.05l-31.95,182.14h115.65c-4.42-1.96-7.25-6.77-6.34-11.91l13.07-74.18c.93-5.23,5.47-9.05,10.79-9.05h86.15c5.31,0,9.85-3.81,10.77-9.03l13.09-74.19c1.18-6.7-3.97-12.83-10.79-12.83Z"/>
      <path class="cls-4" d="M402.34,47.44h-189.67c-5.31,0-9.85,3.81-10.77,9.05l-15.03,85.73h207.5c2.92-1.53,5.07-4.34,5.68-7.76l13.07-74.19c1.18-6.7-3.97-12.83-10.77-12.83Z"/>
      <path class="cls-1" d="M413.29,459.97c0,8.22-2.86,15.26-8.58,21.12-5.72,5.87-12.84,8.8-21.34,8.8s-15.26-2.93-21.12-8.8c-5.87-5.86-8.8-12.91-8.8-21.12s2.93-15.62,8.8-21.34c5.86-5.72,12.91-8.58,21.12-8.58s15.62,2.86,21.34,8.58c5.72,5.72,8.58,12.84,8.58,21.34Z"/>
    </g>
  </g>
</svg>