<?xml version="1.0" encoding="UTF-8"?>
<svg id="Layer_2" data-name="Layer 2" xmlns="http://www.w3.org/2000/svg" viewBox="0 0 759.1 285.21">
  <defs>
    <style>
      .cls-1 {
        fill: #ea4335;
      }

      .cls-2 {
        fill: #36a955;
      }

      .cls-3 {
        fill: #4285f4;
      }

      .cls-4 {
        fill: none;
      }

      .cls-5 {
        fill: #fbbc06;
      }
    </style>
  </defs>
  <g id="Layer_1-2" data-name="Layer 1">
    <path class="cls-3" d="M81.77,186.26l-15.04,85.3c-.58,3.28-3.42,5.67-6.75,5.67H6.86c-4.26,0-7.49-3.85-6.75-8.04L46.33,5.67C46.91,2.39,49.75,0,53.08,0h118.85c4.26,0,7.49,3.85,6.75,8.05l-8.2,46.49c-.58,3.28-3.42,5.67-6.75,5.67h-53.98c-3.33,0-6.17,2.39-6.75,5.67l-8.2,46.49c-.74,4.2,2.49,8.05,6.75,8.05h17.99c4.26,0,7.49,3.85,6.75,8.05l-8.2,46.48c-.58,3.28-3.42,5.67-6.75,5.67h-22.83c-3.33,0-6.17,2.39-6.75,5.67Z"/>
    <path class="cls-1" d="M759.1,254.03c0,5.99-2.09,11.13-6.26,15.41-4.17,4.28-9.36,6.42-15.57,6.42s-11.13-2.14-15.41-6.42c-4.28-4.28-6.42-9.42-6.42-15.41s2.14-11.4,6.42-15.57c4.28-4.17,9.42-6.26,15.41-6.26s11.4,2.09,15.57,6.26c4.17,4.17,6.26,9.37,6.26,15.57Z"/>
    <path class="cls-3" d="M608.59,33.8c-6.7-1.12-41.19-1.23-47.33.19-3.78.88-7.34,3.8-8.45,7.56l-9.49,59.01c-7.08-1.25-13.66-4.48-20.76-5.73-37.78-6.62-77.95,13.3-99.04,44.42l-9.09,17.31h0s0,.01-.01.02c-.2.62-6.65,20.4-7.75,27.06-.87,5.2-.77,19.53-.73,23.01,2.44,25.61,15.84,49.24,37.07,63.73,48.27,32.96,115.24,7.56,138.2-42.44,1.96-4.26,6.75-16.08,7.42-18.35,5.83-19.57,15.71-80.17,15.71-80.17l.02-.13,14.53-85.78c-1.19-5.32-4.94-8.8-10.3-9.71ZM498.71,227.44c-50.39,4.48-48.35-75.29,2.44-76.64,47.35-1.25,45.66,72.35-2.44,76.64Z"/>
    <path class="cls-2" d="M737.24,86.06c-.08-.32-.49-1.03-1.15-2.02,0-.01-.01-.02-.02-.03l-4.61-5.92c-4.86-2.94-17.84-.69-23.74.31-38.83,6.58-71.05,31.7-82.8,69.7l-.07-.31-22.55,113.99c.29,6.95,4.46,10.57,11.13,11.33,10.13,1.15,32.7.95,43.04.04,6.56-.58,10.77-2.29,12.02-8.99,8.33-44.6,9.2-63.6,15.74-92.25,2.77-12.12,8.24-23.6,21.64-26.36,9.83-2.02,19,2.77,22.7-9.94.02-.09.05-.19.08-.29l.27-1.49c.04-.2.08-.42.12-.63l7.85-42.9c.01-.06.02-.13.03-.19.29-2.19.42-3.63.32-4.05Z"/>
    <path class="cls-1" d="M166.05,85.93c15.36-.56,35.69-.18,47.58,0,6.8.11,6.32,6.29,5.58,12.17l-30.09,174.9c-1.6,3.33-4.8,4.76-8.27,4.73-11.54-.1-32.02.44-42.91-.09-11.54-.57-7.86-12.38-6.42-20.24,0,0,20.22-109.98,28.1-164.9.84-3.11,3.25-6.44,6.44-6.56Z"/>
    <path class="cls-5" d="M333.04,156.92c1.99-11.84-5.99-23.05-17.83-25.05-11.84-1.99-23.05,5.99-25.05,17.83-.08.46-.14.91-.18,1.36h-.05l-12.87,76.38c-23.11-13.14-38.7-37.98-38.7-66.46,0-4.15.33-8.21.97-12.18h0c.45-2.81,1.05-5.57,1.8-8.26l.02-.06c0-.05.02-.1.04-.15,9-32.16,38.53-55.74,73.56-55.74,42.19,0,76.39,34.2,76.39,76.39,0,4.13-.33,8.18-.96,12.13l-.6,3.31c-6.83,33.28-35.3,58.67-70.07,60.8l12.94-76.81.59-3.49Z"/>
    <path class="cls-5" d="M241.19,140.33l48.74,10.73-12.87,76.38-7.06,41.9c-.77,4.58-4.77,7.92-9.42,7.85l-39.41-.54c-2.3-.03-4.02-2.11-3.62-4.37l21.78-123.48h0s1.8-8.26,1.8-8.26l.02-.06.03-.15h.01Z"/>
    <path class="cls-5" d="M390.18,173.11l-.6,3.31-17.74,98.03c-.44,2.45-2.59,4.22-5.09,4.19l-46.38-.64c-4.06-.06-7.11-3.72-6.44-7.72l5.58-33.06,12.94-76.81,57.73,12.7Z"/>
    <path class="cls-4" d="M333.04,156.92l-.59,3.49M289.93,151.06h.05c.04-.45.1-.9.18-1.36"/>
  </g>
</svg>