<?xml version="1.0" encoding="UTF-8"?>
<svg id="Layer_2" data-name="Layer 2" xmlns="http://www.w3.org/2000/svg" viewBox="0 0 497.38 482.07">
  <defs>
    <style>
      .cls-1 {
        fill: #91271e;
      }
    </style>
  </defs>
  <g id="Gallery19">
    <g>
      <path class="cls-1" d="M200.57,481.87v-62.25c6.01,2.17,11.33,12.71,16.18,14.95,6.05,2.79,37.54-2.56,46.49-4.15,55.48-9.84,109.98-36.03,144.81-81.15.45-5.88-.82-2.58-4-1.68-64.53,18.25-109.77,29.88-172.76-5.96C83.26,257.4,133.14,23.72,298.47,11.44c168.75-12.54,235.06,177.17,179.89,313.61-44.7,110.54-164.05,160.59-277.78,156.82ZM306.16,58.34c-98.25,7.31-148,122.43-93.63,202.92,45.14,66.83,136.63,71.82,199.95,27.89,10.81-7.5,34.8-28.39,36.98-41.41,14.77-88.44-44.19-196.77-143.3-189.39Z"/>
      <path class="cls-1" d="M119.88,375.82H41.49c.96-4.13,16.14-15.71,16.14-17.29V103.75l-28.48,20.39L0,87.66,103.74,0v358.52c0,1.59,15.17,13.16,16.14,17.29Z"/>
    </g>
  </g>
</svg>