<?xml version="1.0" encoding="UTF-8"?>
<svg id="Layer_2" data-name="Layer 2" xmlns="http://www.w3.org/2000/svg" viewBox="0 0 740.26 740.26">
  <defs>
    <style>
      .cls-1 {
        fill: #91271e;
      }

      .cls-2 {
        opacity: .67;
      }
    </style>
  </defs>
  <g id="Gallery19">
    <circle class="cls-2" cx="370.13" cy="370.13" r="370.13"/>
    <g>
      <path class="cls-1" d="M315,648.28v-71.32c6.89,2.49,12.98,14.56,18.54,17.13,6.93,3.2,43-2.93,53.27-4.75,63.56-11.27,126.01-41.28,165.91-92.98.52-6.74-.94-2.96-4.58-1.93-73.94,20.9-125.77,34.23-197.93-6.83-169.61-96.5-112.47-364.23,76.96-378.3,193.34-14.36,269.31,202.99,206.1,359.31-51.21,126.64-187.95,183.99-318.26,179.67ZM435.97,163.04c-112.57,8.38-169.57,140.27-107.27,232.48,51.72,76.56,156.54,82.29,229.08,31.95,12.39-8.6,39.87-32.53,42.37-47.45,16.92-101.33-50.62-225.44-164.17-216.99Z"/>
      <path class="cls-1" d="M222.55,526.77h-89.81c1.1-4.73,18.49-17.99,18.49-19.81V215.06l-32.63,23.36-33.39-41.8,118.85-100.43v410.76c0,1.82,17.39,15.08,18.49,19.81Z"/>
    </g>
  </g>
</svg>