<?xml version="1.0" encoding="UTF-8"?>
<svg id="Layer_2" data-name="Layer 2" xmlns="http://www.w3.org/2000/svg" viewBox="0 0 46.11 56.59">
  <defs>
    <style>
      .cls-1 {
        fill: #b18c3e;
      }

      .cls-2 {
        fill: #a48138;
      }
    </style>
  </defs>
  <g id="Vesperine">
    <g>
      <path class="cls-1" d="M21.62,36.93c-1.34-2.6-4.66-9.58-7.61-15.7-2.9-6.04-5.55-6.36-8.15-6.22-3.24.17-5.32,4.56-2.86,5.98,1.66.96,1-1.28,1.53-1.62,1.9-1.21,3.13,2.15,1.25,3.27-2.05,1.22-5.31-.5-5.68-2.79-.96-5.95,4.93-7.71,9.71-6.05.92.32,2.73,1.68,2.9,1.7.77.11,2.49-.52,3.5-.21-2.35.59-1.35,3.19-.25,5.44.71,1.45,6.77,13.89,6.77,13.89l-1.13,2.31Z"/>
      <path class="cls-1" d="M32.53,20.82c1.8-3.51,2.87-5.46,7.31-5.52,3.19-.05,5.04,2.34,4.11,5.4-.16,1.3.69,1.31,1.47.37,2.24-4.15-1.41-7.76-5.67-7.72-3.11.03-5.23,2.28-6.23,2.43-.85.12-1.78-.76-3.87-.21.9.3,1,.3,1.34.77,1.15,1.61-.22,3.26-.98,5.09-.11.37-9.44,19.34-9.44,19.34l1.13,2.26"/>
      <path class="cls-1" d="M21.2,37.77c-1.04-2.09-5.93-11.92-7-14.04-1.65-3.29-3.78-8.63-8.38-7.4,1.37.2,1.49.34,2.23.78.67.4,1.46,1.23,1.87,1.94.81,1.4,8.55,17.66,10.21,20.93l1.07-2.2Z"/>
      <path class="cls-1" d="M35.07,21.55s.46-1.24,1.27-2.64c.41-.71.76-1.26,1.43-1.65.73-.44.93-.61,2.3-.82-3.83-.5-5.55,1.99-6.5,3.94.24,1.21.89,2.08,1.5,1.17Z"/>
      <polygon class="cls-1" points="30.1 21.25 20.58 40.78 21.71 43.03 32.91 20.05 30.1 21.25"/>
      <path class="cls-1" d="M24.58,2.32c-.39-.52-1.26-2.32-1.26-2.32,0,0-.85,1.78-1.2,2.24-.39.51-1.76,1.62-1.76,1.62,0,0,1.29,1.41,1.64,2.08.39.75,1.33,3.62,1.33,3.62,0,0,.92-2.82,1.32-3.62.31-.62,1.54-2.09,1.54-2.09,0,0-1.27-1.08-1.6-1.53ZM23.87,4.72c-.17.34-.57,2.57-.57,2.57,0,0-.37-2.25-.54-2.57-.15-.28-1.07-.76-1.07-.76,0,0,.96-.58,1.12-.79.15-.19.49-1.36.49-1.36,0,0,.39,1.17.55,1.39.14.19,1.05.65,1.05.65,0,0-.89.61-1.02.87Z"/>
      <path class="cls-1" d="M26.23,23.64s-1.4.51-2.03,1.91c-.66,1.49-.89,3.81-.89,3.81,0,0-.31-2.56-1.04-3.95s-1.88-1.76-1.88-1.76c0,0,.73-1.15,2.02-.34,0,0,.19-.89.3-1.17.12-.31.59-1.21.59-1.21,0,0,.46.87.58,1.2.1.26.31,1.16.31,1.16,1.24-.75,2.03.35,2.03.35Z"/>
      <g>
        <path class="cls-1" d="M7.66,31.56c-.45,2.89-2.03,3.75-1.44,7.86.73,5.07,6.93,9.31,11.8,7.1,1.17-.53,2.89-2.34,2.75-3.71-.2-1.9-2.96-2.51-3.21-.24,0,0,.53-.81,1.17-.87.56-.05,1.06.65.85,1.31-1.61,4.97-9.4,2.93-9.72-1.91-.48-.58-1.48-2.32-.93.97.04.21.4.93-.48-.47-1.74-2.76-.17-9.31,3.43-9.33,1.97,0,2.34,1.04,2.75,2.22.58-4.5-4.47-3.99-6.42-1.1-.09-.45,1.15-2.15,1.29-2.35.53-.88-1.15-.28-1.84.51Z"/>
        <path class="cls-1" d="M8.64,32.33c1.9-2.88,3.13-2.79,3.2-4.94,0-.25-.23-1.51-.55-1.85,0,0,0,3.4-2.1,3.61-.26,0-.52-4.39-3.16-4.18-2.22.18-2.36,2.43-2.36,2.43,2.04-2.15,4.9-1.78,3.98,4.17l.98.77Z"/>
        <path class="cls-1" d="M9.86,41.11c-.23-3.52,5.75-5.23,5.55-2.1-.14,2.23-2.53.74-2.53.74,0,0,.19.58.48.86.72.69,2.12.51,2.72-.27,1.87-2.41-.71-5.38-3.55-4.46-2.45.79-3.89,2.49-3.76,4.78.07-.12.91.59,1.08.46Z"/>
      </g>
      <g>
        <path class="cls-1" d="M37.39,31.01c.14.19,1.38,1.9,1.29,2.35-1.94-2.88-7-3.4-6.42,1.1.41-1.18.78-2.23,2.75-2.22,3.6.01,5.17,6.57,3.43,9.33-.88,1.4-.52.68-.48.47.55-3.29-.45-1.55-.93-.97-.31,4.84-8.11,6.88-9.72,1.91-.21-.66.29-1.36.85-1.31.64.05,1.17.87,1.17.87-.24-2.28-3.01-1.67-3.21.24-.14,1.38,1.58,3.18,2.75,3.71,4.86,2.21,11.07-2.03,11.8-7.1.59-4.11-.99-4.97-1.44-7.86-.69-.79-2.37-1.4-1.84-.51Z"/>
        <path class="cls-1" d="M39.23,31.53c-.93-5.95,1.94-6.32,3.98-4.17,0,0-.13-2.26-2.36-2.43-2.64-.21-2.9,4.18-3.16,4.18-2.09-.21-2.1-3.61-2.1-3.61-.32.35-.57,1.47-.56,1.73.08,2.15,1.31,2.18,3.21,5.07l.98-.77Z"/>
        <path class="cls-1" d="M38.11,40.61c.13-2.29-1.31-3.99-3.76-4.78-2.84-.91-5.42,2.05-3.55,4.46.6.77,2.01.96,2.72.27.29-.28.48-.86.48-.86,0,0-2.39,1.49-2.53-.74-.2-3.13,5.78-1.42,5.55,2.1.17.14,1.01-.58,1.08-.46Z"/>
      </g>
      <path class="cls-1" d="M23.24,41.59c-1.59,2.72-2.41,4.71-4.58,5.82s-3.95,1.03-3.95,1.03c2.4,1.38,5.06.79,6.75-.66,1.55-1.32,3.25-4.91,3.25-4.91l10.37-21.32-1.5-1.17-10.34,21.21Z"/>
      <path class="cls-1" d="M25.61,52.96c1.06,0,1.31-1.43,1.31-1.43,0,0-1.08-.05-1.89-.85-.38-.38-.66-.84-.95-1.46-.48-1.04-.86-1.91-.86-1.91,0,0-.41.95-.98,1.99-.27.49-.53.97-.93,1.41-.9.98-1.66.82-1.66.82,0,0,0,1.44,1.31,1.44s2.26-2.48,2.26-2.48c0,0,.77,2.48,2.39,2.48Z"/>
      <path class="cls-1" d="M44.03,20.48c-.36.6-1.08,1.07-1.83.73-.67-4.96-5.06.6-1.21,1.76,2.22.67,3.61-.27,4.54-2.1-.5.3-1.46-.45-1.49-.39Z"/>
      <path class="cls-1" d="M23.99,13.89c1.89-7.05,3.39-8.72,5.15-9.11-4.98-.58-4.83,5.6-5.15,9.11Z"/>
      <path class="cls-1" d="M17.48,4.78c1.76.4,3.27,2.06,5.15,9.11-.33-3.52-.18-9.69-5.15-9.11Z"/>
      <path class="cls-2" d="M24.95,43.72s-.27.67-.55,1.12c-.23.36-.55.85-.55.85.93,1.4,1.87,2.81,3.84,3.34,1.23.33,2.8.51,4.63-.51-2.95-.13-5.58-1.27-7.37-4.81Z"/>
      <polygon class="cls-1" points="24.28 54.24 23.29 52.42 22.24 54.28 23.29 56.59 24.28 54.24"/>
      <g>
        <path class="cls-1" d="M14.46,7.87c-2,.62-2.84,3.77-.35,4.24-1.18-2.22,2.56-3.63,4.04-1.84-2.25-.41-3.32,1.37-1.65,2.94.11-1.39,1.12-1.65,2.41-1.32,1.93.49,2.24,5.58,1.81,7.2.32.63.69.51,1.1-.37,1-4.32-1.9-12.53-7.35-10.84Z"/>
        <path class="cls-1" d="M20.71,19.09c-.22,1.49-1.89,4.18-1.89,4.18.13-.11,1.53-1.44,2.22-2.68.28-.5.65-1.33.77-1.87l-1.1.37Z"/>
      </g>
      <g>
        <path class="cls-1" d="M24.62,18.72c.41.88.78,1,1.1.37-.44-1.61-.13-6.71,1.81-7.2,1.29-.33,2.3-.07,2.41,1.32,1.67-1.57.6-3.35-1.65-2.94,1.48-1.79,5.22-.38,4.04,1.84,2.49-.47,1.65-3.62-.35-4.24-5.46-1.68-8.36,6.53-7.35,10.84Z"/>
        <path class="cls-1" d="M24.62,18.72c.13.54.5,1.37.77,1.87.69,1.24,2.09,2.57,2.22,2.68,0,0-1.67-2.69-1.89-4.18l-1.1-.37Z"/>
      </g>
    </g>
  </g>
</svg>