<?xml version="1.0" encoding="UTF-8"?>
<svg id="Layer_2" data-name="Layer 2" xmlns="http://www.w3.org/2000/svg" viewBox="0 0 764.52 751.99">
  <defs>
    <style>
      .cls-1 {
        fill: #b18c3e;
      }

      .cls-2, .cls-3 {
        fill: #a48138;
      }

      .cls-3 {
        font-family: Georgia, Georgia;
        font-size: 134.72px;
      }
    </style>
  </defs>
  <g id="Vesperine">
    <g>
      <path class="cls-1" d="M368.36,357.54c-12.93-25.14-45.15-92.73-73.64-152.04-28.09-58.48-53.72-61.55-78.95-60.21-31.42,1.67-51.48,44.12-27.66,57.91,16.12,9.33,9.7-12.36,14.84-15.64,18.44-11.75,30.33,20.86,12.15,31.7-19.83,11.83-51.42-4.8-55.03-27.05-9.34-57.62,47.73-74.69,94.04-58.62,8.93,3.1,26.46,16.24,28.07,16.47,7.46,1.07,24.13-5.06,33.89-2.05-22.78,5.69-13.11,30.91-2.38,52.65,6.92,14.02,65.59,134.48,65.59,134.48l-10.93,22.4Z"/>
      <path class="cls-1" d="M474.02,201.59c17.43-34.01,27.8-52.87,70.81-53.49,30.86-.45,48.84,22.67,39.84,52.33-1.56,12.57,6.68,12.72,14.2,3.55,21.66-40.16-13.63-75.13-54.87-74.72-30.09.3-50.59,22.09-60.36,23.5-8.19,1.19-17.23-7.33-37.43-2.05,8.7,2.89,9.71,2.9,13,7.49,11.14,15.56-2.12,31.55-9.47,49.32-1.03,3.62-91.39,187.27-91.39,187.27l10.94,21.88"/>
      <path class="cls-1" d="M364.36,365.72c-10.03-20.27-57.42-115.44-67.74-135.97-16-31.83-36.62-83.54-81.11-71.62,13.27,1.95,14.45,3.29,21.55,7.52,6.47,3.85,14.14,11.9,18.09,18.77,7.81,13.6,82.8,170.97,98.82,202.61l10.39-21.31Z"/>
      <path class="cls-1" d="M498.65,208.61s4.47-12.01,12.28-25.61c3.95-6.87,7.35-12.16,13.81-16.02,7.1-4.23,9.04-5.94,22.31-7.89-37.05-4.83-53.72,19.22-62.92,38.15,2.37,11.75,8.64,20.12,14.52,11.36Z"/>
      <polygon class="cls-1" points="450.5 205.79 358.37 394.8 369.3 416.68 477.67 194.1 450.5 205.79"/>
      <path class="cls-1" d="M397.03,22.46c-3.75-5.02-12.24-22.46-12.24-22.46,0,0-8.25,17.2-11.67,21.65-3.76,4.89-17.03,15.68-17.03,15.68,0,0,12.47,13.66,15.86,20.18,3.79,7.29,12.83,35.09,12.83,35.09,0,0,8.91-27.3,12.82-35.09,3.04-6.05,14.95-20.26,14.95-20.26,0,0-12.33-10.5-15.53-14.79ZM390.21,45.72c-1.64,3.26-5.57,24.87-5.57,24.87,0,0-3.6-21.81-5.19-24.87-1.42-2.74-10.35-7.39-10.35-7.39,0,0,9.26-5.59,10.84-7.65,1.43-1.86,4.7-13.13,4.7-13.13,0,0,3.75,11.36,5.33,13.47,1.34,1.8,10.12,6.26,10.12,6.26,0,0-8.6,5.9-9.88,8.44Z"/>
      <path class="cls-1" d="M413.03,228.84s-13.6,4.94-19.63,18.47c-6.41,14.39-8.61,36.89-8.61,36.89,0,0-3.05-24.82-10.03-38.28-6.79-13.09-18.2-17-18.2-17,0,0,7.06-11.17,19.59-3.28,0,0,1.88-8.59,2.9-11.3,1.14-3.04,5.74-11.72,5.74-11.72,0,0,4.43,8.4,5.64,11.61.94,2.5,2.97,11.19,2.97,11.19,12.04-7.26,19.63,3.42,19.63,3.42Z"/>
      <g>
        <path class="cls-1" d="M233.21,305.61c-4.36,27.99-19.64,36.28-13.9,76.09,7.08,49.09,67.13,90.16,114.23,68.74,11.34-5.15,27.98-22.64,26.6-35.96-1.91-18.44-28.68-24.34-31.04-2.28,0,0,5.14-7.87,11.33-8.39,5.39-.46,10.25,6.29,8.19,12.67-15.54,48.17-91.05,28.34-94.1-18.48-4.63-5.64-14.31-22.43-9.02,9.41.34,2.06,3.87,8.99-4.69-4.57-16.86-26.7-1.67-90.18,33.23-90.3,19.05-.07,22.63,10.04,26.61,21.49,5.66-43.6-43.29-38.6-62.11-10.68-.83-4.38,11.15-20.84,12.52-22.73,5.12-8.56-11.13-2.71-17.83,4.98Z"/>
        <path class="cls-1" d="M242.74,313.06c18.42-27.92,30.28-27.01,31.02-47.84.09-2.46-2.27-14.58-5.35-17.95,0,0-.02,32.93-20.29,34.94-2.55-.05-5.04-42.53-30.6-40.51-21.53,1.7-22.8,23.56-22.8,23.56,19.73-20.85,47.46-17.23,38.5,40.33l9.52,7.45Z"/>
        <path class="cls-1" d="M254.52,398c-2.22-34.05,55.72-50.64,53.76-20.34-1.39,21.56-24.5,7.13-24.5,7.13,0,0,1.87,5.66,4.67,8.36,6.96,6.72,20.57,4.9,26.38-2.6,18.08-23.33-6.87-52.05-34.41-43.22-23.72,7.61-37.64,24.11-36.4,46.23.7-1.15,8.8,5.75,10.49,4.44Z"/>
      </g>
      <g>
        <path class="cls-1" d="M521.05,300.29c1.37,1.88,13.35,18.35,12.52,22.73-18.83-27.92-67.78-32.93-62.11,10.68,3.98-11.46,7.56-21.56,26.61-21.49,34.89.12,50.09,63.6,33.23,90.3-8.56,13.55-5.03,6.63-4.69,4.57,5.29-31.84-4.4-15.05-9.02-9.41-3.05,46.83-78.56,66.65-94.1,18.48-2.06-6.39,2.8-13.13,8.19-12.67,6.19.52,11.33,8.39,11.33,8.39-2.37-22.06-29.13-16.15-31.04,2.28-1.38,13.33,15.26,30.81,26.6,35.96,47.1,21.41,107.16-19.65,114.23-68.74,5.74-39.82-9.54-48.11-13.9-76.09-6.7-7.68-22.95-13.54-17.83-4.98Z"/>
        <path class="cls-1" d="M538.88,305.27c-8.96-57.57,18.77-61.18,38.5-40.33,0,0-1.28-21.86-22.8-23.56-25.56-2.02-28.05,40.46-30.6,40.51-20.27-2.01-20.29-34.94-20.29-34.94-3.08,3.37-5.51,14.26-5.42,16.72.75,20.83,12.67,21.15,31.09,49.07l9.52-7.45Z"/>
        <path class="cls-1" d="M528.07,393.22c1.24-22.13-12.68-38.62-36.4-46.23-27.54-8.84-52.49,19.89-34.41,43.22,5.81,7.5,19.42,9.32,26.38,2.6,2.8-2.7,4.67-8.36,4.67-8.36,0,0-23.1,14.43-24.5-7.13-1.96-30.3,55.98-13.71,53.76,20.34,1.69,1.31,9.8-5.59,10.49-4.44Z"/>
      </g>
      <path class="cls-1" d="M384.04,402.65c-15.42,26.37-23.32,45.56-44.36,56.39-21.34,10.98-38.27,9.98-38.27,9.98,23.28,13.37,48.95,7.61,65.35-6.42,14.99-12.82,31.46-47.58,31.46-47.58l100.44-206.41-14.52-11.36-100.09,205.41Z"/>
      <path class="cls-1" d="M407.03,512.77c10.31,0,12.67-13.89,12.67-13.89,0,0-10.46-.48-18.3-8.24-3.67-3.64-6.39-8.12-9.21-14.16-4.69-10.04-8.31-18.45-8.31-18.45,0,0-4.01,9.24-9.48,19.23-2.62,4.79-5.11,9.44-8.98,13.62-8.75,9.45-16.07,7.97-16.07,7.97,0,0,0,13.93,12.67,13.93s21.86-24,21.86-24c0,0,7.46,24,23.15,24Z"/>
      <path class="cls-1" d="M585.41,198.3c-3.44,5.83-10.47,10.31-17.72,7.11-6.49-48.03-48.97,5.82-11.74,17,21.51,6.46,34.94-2.61,43.93-20.38-4.85,2.87-14.1-4.37-14.47-3.74Z"/>
      <path class="cls-1" d="M391.34,134.49c18.29-68.3,32.83-84.39,49.91-88.24-48.2-5.59-46.74,54.21-49.91,88.24Z"/>
      <path class="cls-1" d="M328.34,46.24c17.07,3.85,31.62,19.94,49.91,88.24-3.17-34.04-1.71-93.83-49.91-88.24Z"/>
      <path class="cls-2" d="M400.62,423.36s-2.6,6.53-5.35,10.89c-2.19,3.46-5.3,8.27-5.3,8.27,9.01,13.58,18.07,27.2,37.17,32.32,11.93,3.2,27.09,4.98,44.83-4.93-28.53-1.24-54.07-12.26-71.34-46.54Z"/>
      <polygon class="cls-1" points="394.1 525.14 384.52 507.5 374.39 525.53 384.52 547.97 394.1 525.14"/>
      <g>
        <path class="cls-1" d="M299.03,76.23c-19.34,5.97-27.54,36.47-3.38,41.04-11.44-21.46,24.76-35.12,39.08-17.8-21.74-4.01-32.12,13.27-15.96,28.44,1.08-13.45,10.85-15.97,23.31-12.81,18.72,4.74,21.73,54.07,17.51,69.68,3.11,6.14,6.66,4.95,10.65-3.55,9.71-41.83-18.39-121.3-71.21-105Z"/>
        <path class="cls-1" d="M359.59,184.79c-2.16,14.44-18.29,40.49-18.29,40.49,1.24-1.04,14.8-13.93,21.47-25.94,2.67-4.8,6.25-12.86,7.47-18.11l-10.65,3.55Z"/>
      </g>
      <g>
        <path class="cls-1" d="M397.45,181.24c3.99,8.51,7.54,9.69,10.65,3.55-4.22-15.61-1.21-64.94,17.51-69.68,12.46-3.16,22.22-.64,23.31,12.81,16.17-15.17,5.78-32.46-15.96-28.44,14.32-17.32,50.52-3.65,39.08,17.8,24.16-4.57,15.96-35.08-3.38-41.04-52.82-16.3-80.92,63.18-71.21,105Z"/>
        <path class="cls-1" d="M397.45,181.24c1.22,5.25,4.8,13.3,7.47,18.11,6.67,12.01,20.23,24.9,21.47,25.94,0,0-16.13-26.05-18.29-40.49l-10.65-3.55Z"/>
      </g>
    </g>
    <text class="cls-3" transform="translate(2.56 711.14)"><tspan x="0" y="0">VESPERINE</tspan></text>
  </g>
</svg>